<?xml version="1.0" standalone="no"?>
<!DOCTYPE svg PUBLIC "-//W3C//DTD SVG 20010904//EN"
 "http://www.w3.org/TR/2001/REC-SVG-20010904/DTD/svg10.dtd">
<svg version="1.0" xmlns="http://www.w3.org/2000/svg"
 width="1024.000000pt" height="1024.000000pt" viewBox="0 0 1024.000000 1024.000000"
 preserveAspectRatio="xMidYMid meet">

<g transform="translate(0.000000,1024.000000) scale(0.100000,-0.100000)"
fill="#000000" stroke="none">
<path d="M2173 6865 c-187 -41 -360 -211 -402 -395 -7 -29 -11 -336 -11 -856
0 -810 0 -811 -31 -1240 -18 -236 -32 -485 -33 -554 -1 -126 -1 -126 36 -200
61 -125 157 -206 287 -242 62 -17 131 -18 1186 -18 974 0 1128 2 1180 15 173
45 292 169 326 338 12 56 1 283 -33 697 -6 77 -14 546 -17 1090 l-6 955 -24
60 c-65 164 -177 273 -348 338 l-58 22 -995 2 c-810 1 -1007 -1 -1057 -12z
m2095 -213 c66 -35 125 -95 158 -159 l29 -58 0 -956 0 -956 -35 -68 c-25 -49
-51 -82 -88 -112 -95 -77 -37 -74 -1138 -71 l-979 3 -56 28 c-70 34 -142 109
-177 185 l-27 57 0 945 0 945 28 53 c59 113 152 181 261 191 34 3 493 4 1021
1 l960 -5 43 -23z m-2197 -2525 c121 -59 88 -57 1135 -57 608 0 981 4 1015 10
72 14 187 69 237 114 l40 37 6 -53 c14 -134 27 -397 20 -424 -19 -79 -69 -139
-144 -173 -44 -20 -60 -21 -1176 -21 l-1130 0 -55 28 c-62 31 -113 92 -130
155 -11 40 -5 180 17 429 l6 66 53 -43 c29 -23 77 -54 106 -68z"/>
<path d="M3487 6329 c-295 -69 -390 -525 -155 -745 27 -25 74 -57 106 -72 50
-24 69 -27 162 -27 131 0 195 20 255 79 54 55 69 108 69 261 l1 120 -157 3
-158 3 0 -76 0 -75 75 0 75 0 0 -30 c0 -88 -58 -140 -154 -140 -146 0 -226
104 -226 291 0 141 58 244 150 269 90 24 160 -3 195 -78 22 -47 25 -48 122
-31 71 13 73 16 47 94 -24 70 -79 119 -159 144 -71 22 -178 26 -248 10z"/>
<path d="M2537 6323 c-4 -3 -7 -192 -7 -420 l0 -413 85 0 85 0 0 149 0 149
128 4 c112 3 133 6 177 28 100 50 149 161 127 289 -21 123 -99 190 -247 211
-79 11 -338 14 -348 3z m363 -158 c55 -28 77 -113 45 -174 -22 -43 -70 -61
-164 -61 l-81 0 0 125 0 125 85 0 c57 0 96 -5 115 -15z"/>
<path d="M3014 5351 c-2 -2 -4 -126 -4 -275 0 -238 -2 -275 -18 -305 -26 -53
-64 -75 -125 -75 -70 0 -114 25 -138 77 -17 38 -19 68 -19 310 l0 267 -80 0
-80 0 0 -283 c0 -319 5 -355 65 -424 20 -23 61 -54 93 -70 51 -24 68 -28 157
-28 80 0 109 5 146 21 66 31 113 77 140 136 23 51 24 62 27 350 l3 296 -81 4
c-45 2 -84 1 -86 -1z"/>
<path d="M3344 5345 c-3 -6 -3 -186 -2 -400 l3 -390 70 0 70 0 3 146 3 147
112 4 c122 5 172 20 220 66 93 88 101 249 17 345 -63 71 -96 80 -309 86 -119
4 -185 2 -187 -4z m358 -163 c28 -28 33 -39 33 -81 0 -84 -54 -121 -175 -121
l-70 0 0 121 0 121 90 -4 c86 -3 91 -4 122 -36z"/>
<path d="M7395 6296 c-134 -33 -238 -120 -303 -256 -66 -140 -78 -253 -42
-394 56 -219 213 -356 435 -380 73 -8 193 8 251 33 61 27 128 93 153 150 24
57 44 207 39 306 l-3 70 -190 0 -190 0 0 -85 0 -85 93 -3 92 -3 0 -28 c0 -103
-83 -180 -194 -181 -111 0 -200 60 -252 172 -26 58 -29 72 -29 178 0 146 18
203 90 276 43 44 58 54 107 64 117 24 195 -8 234 -95 13 -30 29 -55 36 -55 37
1 172 30 181 39 15 15 -7 85 -48 147 -40 61 -108 107 -190 129 -69 18 -199 18
-270 1z"/>
<path d="M5362 5783 l3 -508 95 0 95 0 3 183 2 182 129 0 c161 0 235 20 305
81 58 51 81 96 97 183 20 116 -14 231 -86 294 -87 77 -158 92 -433 92 l-212 0
2 -507z m447 312 c49 -29 73 -67 78 -122 4 -39 0 -55 -19 -83 -40 -59 -88 -78
-206 -82 l-102 -3 0 159 0 158 108 -3 c84 -3 114 -8 141 -24z"/>
<path d="M6246 5789 c-91 -276 -163 -506 -160 -510 8 -13 191 -11 200 2 3 6
19 54 34 107 l28 97 192 0 193 0 36 -105 36 -105 94 -3 c52 -1 98 1 103 6 4 4
-73 233 -171 507 l-179 500 -121 3 -120 3 -165 -502z m353 71 c39 -112 71
-205 71 -207 0 -2 -61 -3 -136 -3 -104 0 -135 3 -131 13 2 6 31 101 63 209 32
108 59 196 61 195 1 -2 34 -94 72 -207z"/>
<path d="M8122 5783 l3 -508 320 0 320 0 3 93 3 92 -231 0 -230 0 0 115 0 115
200 0 200 0 0 90 0 90 -200 0 -200 0 0 115 0 115 218 2 217 3 3 93 3 92 -316
0 -315 0 2 -507z"/>
<path d="M5360 4633 c0 -422 7 -460 100 -553 80 -80 190 -116 334 -107 181 10
308 98 354 246 14 48 17 105 17 406 l0 350 -105 0 -105 0 -5 -345 c-3 -236 -9
-351 -17 -365 -18 -31 -65 -73 -96 -84 -39 -15 -122 -14 -160 3 -39 16 -81 60
-98 101 -10 22 -14 124 -17 363 l-4 332 -99 0 -99 0 0 -347z"/>
<path d="M6345 4969 c-3 -8 -4 -232 -3 -499 l3 -485 100 0 100 0 3 178 2 177
108 0 c206 0 310 48 374 170 20 39 23 59 23 150 0 123 -15 162 -89 227 -81 71
-145 86 -398 91 -178 3 -219 2 -223 -9z m432 -189 c114 -51 110 -199 -7 -257
-36 -19 -61 -23 -132 -23 l-88 0 0 150 0 150 93 0 c69 0 103 -5 134 -20z"/>
</g>
</svg>
